<svg width="16" height="16" viewBox="0 0 16 16" fill="none" xmlns="http://www.w3.org/2000/svg">
<circle cx="8" cy="8" r="8" fill="#48A4EB"/>
<path d="M7.36914 7.00195H8.27148C8.56055 7.00195 8.79883 6.95312 8.98633 6.85547C9.17383 6.75391 9.3125 6.61328 9.40234 6.43359C9.49609 6.25 9.54297 6.03711 9.54297 5.79492C9.54297 5.57617 9.5 5.38281 9.41406 5.21484C9.33203 5.04297 9.20508 4.91016 9.0332 4.81641C8.86133 4.71875 8.64453 4.66992 8.38281 4.66992C8.17578 4.66992 7.98438 4.71094 7.80859 4.79297C7.63281 4.875 7.49219 4.99023 7.38672 5.13867C7.28125 5.28711 7.22852 5.4668 7.22852 5.67773H5.53516C5.53516 5.20898 5.66016 4.80078 5.91016 4.45312C6.16406 4.10547 6.50391 3.83398 6.92969 3.63867C7.35547 3.44336 7.82422 3.3457 8.33594 3.3457C8.91406 3.3457 9.41992 3.43945 9.85352 3.62695C10.2871 3.81055 10.625 4.08203 10.8672 4.44141C11.1094 4.80078 11.2305 5.24609 11.2305 5.77734C11.2305 6.04688 11.168 6.30859 11.043 6.5625C10.918 6.8125 10.7383 7.03906 10.5039 7.24219C10.2734 7.44141 9.99219 7.60156 9.66016 7.72266C9.32812 7.83984 8.95508 7.89844 8.54102 7.89844H7.36914V7.00195ZM7.36914 8.28516V7.41211H8.54102C9.00586 7.41211 9.41406 7.46484 9.76562 7.57031C10.1172 7.67578 10.4121 7.82812 10.6504 8.02734C10.8887 8.22266 11.0684 8.45508 11.1895 8.72461C11.3105 8.99023 11.3711 9.28516 11.3711 9.60938C11.3711 10.0078 11.2949 10.3633 11.1426 10.6758C10.9902 10.9844 10.7754 11.2461 10.498 11.4609C10.2246 11.6758 9.9043 11.8398 9.53711 11.9531C9.16992 12.0625 8.76953 12.1172 8.33594 12.1172C7.97656 12.1172 7.62305 12.0684 7.27539 11.9707C6.93164 11.8691 6.61914 11.7188 6.33789 11.5195C6.06055 11.3164 5.83789 11.0625 5.66992 10.7578C5.50586 10.4492 5.42383 10.084 5.42383 9.66211H7.11719C7.11719 9.88086 7.17188 10.0762 7.28125 10.248C7.39062 10.4199 7.54102 10.5547 7.73242 10.6523C7.92773 10.75 8.14453 10.7988 8.38281 10.7988C8.65234 10.7988 8.88281 10.75 9.07422 10.6523C9.26953 10.5508 9.41797 10.4102 9.51953 10.2305C9.625 10.0469 9.67773 9.83398 9.67773 9.5918C9.67773 9.2793 9.62109 9.0293 9.50781 8.8418C9.39453 8.65039 9.23242 8.50977 9.02148 8.41992C8.81055 8.33008 8.56055 8.28516 8.27148 8.28516H7.36914Z" fill="white"/>
</svg>
